<svg width="16" height="16" viewBox="0 0 16 16" fill="none" xmlns="http://www.w3.org/2000/svg">
<g clip-path="url(#clip0_4015_2499)">
<path d="M10.1966 3.52978L9.46619 6.53918H13.7246C13.9514 6.53918 14.1751 6.59199 14.378 6.69341C14.5808 6.79484 14.7573 6.9421 14.8933 7.12353C15.0294 7.30497 15.1214 7.5156 15.162 7.73873C15.2025 7.96187 15.1906 8.19138 15.1271 8.40911L13.4252 14.2526C13.3367 14.5561 13.1521 14.8226 12.8992 15.0123C12.6464 15.2019 12.3388 15.3044 12.0227 15.3044H2.1618C1.77436 15.3044 1.40278 15.1505 1.12881 14.8766C0.854841 14.6026 0.700928 14.231 0.700928 13.8436V8.00006C0.700928 7.61261 0.854841 7.24103 1.12881 6.96707C1.40278 6.6931 1.77436 6.53918 2.1618 6.53918H4.17781C4.4496 6.53904 4.71595 6.46308 4.94693 6.31985C5.17791 6.17662 5.36435 5.97179 5.4853 5.7284L8.00531 0.695679C8.34977 0.699944 8.68881 0.781994 8.9971 0.935698C9.3054 1.0894 9.57497 1.31079 9.78568 1.58331C9.9964 1.85583 10.1428 2.17245 10.214 2.5095C10.2851 2.84656 10.2792 3.19534 10.1966 3.52978Z" fill="white"/>
<path d="M4.35333 6.53906V15.3043V6.53906Z" fill="#27292B"/>
<path d="M4.35333 6.53906V15.3043" stroke="#202428" stroke-linecap="round" stroke-linejoin="round"/>
</g>
<defs>
<clipPath id="clip0_4015_2499">
<rect width="16" height="16" fill="white"/>
</clipPath>
</defs>
</svg>
