<svg width="6" height="10" viewBox="0 0 6 10" fill="none" xmlns="http://www.w3.org/2000/svg">
<path d="M0.768744 5.00001C0.768744 4.90001 0.787495 4.80326 0.824995 4.70976C0.862495 4.61576 0.912495 4.53751 0.974995 4.47501L4.42499 1.02501C4.56249 0.887506 4.73749 0.818756 4.94999 0.818756C5.16249 0.818756 5.33749 0.887506 5.47499 1.02501C5.61249 1.16251 5.68124 1.33751 5.68124 1.55001C5.68124 1.76251 5.61249 1.93751 5.47499 2.07501L2.54999 5.00001L5.47499 7.92501C5.61249 8.06251 5.68124 8.23751 5.68124 8.45001C5.68124 8.66251 5.61249 8.83751 5.47499 8.97501C5.33749 9.1125 5.16249 9.18126 4.94999 9.18126C4.73749 9.18126 4.56249 9.11251 4.42499 8.97501L0.974995 5.52501C0.899995 5.45001 0.846995 5.36876 0.815995 5.28126C0.784495 5.19376 0.768744 5.10001 0.768744 5.00001Z" fill="#F5F8FF"/>
</svg>
