<svg width="16" height="16" viewBox="0 0 16 16" fill="none" xmlns="http://www.w3.org/2000/svg">
<g clip-path="url(#clip0_4015_2505)">
<path d="M5.80338 12.4702L6.53381 9.46082L2.27536 9.46082C2.04857 9.46082 1.82489 9.40801 1.62204 9.30659C1.41919 9.20516 1.24273 9.0579 1.10666 8.87647C0.970582 8.69503 0.878618 8.4844 0.838048 8.26127C0.797478 8.03813 0.809416 7.80862 0.872918 7.59089L2.57484 1.74739C2.66334 1.44394 2.84788 1.17739 3.10075 0.987732C3.35363 0.798078 3.66119 0.695558 3.97728 0.695558L13.8382 0.695558C14.2256 0.695558 14.5972 0.849471 14.8712 1.12344C15.1452 1.39741 15.2991 1.76899 15.2991 2.15643V7.99994C15.2991 8.38739 15.1452 8.75897 14.8712 9.03293C14.5972 9.3069 14.2256 9.46082 13.8382 9.46082H11.8222C11.5504 9.46096 11.284 9.53692 11.0531 9.68015C10.8221 9.82338 10.6356 10.0282 10.5147 10.2716L7.99469 15.3043C7.65023 15.3001 7.31119 15.218 7.0029 15.0643C6.6946 14.9106 6.42503 14.6892 6.21432 14.4167C6.0036 14.1442 5.8572 13.8276 5.78604 13.4905C5.71488 13.1534 5.72081 12.8047 5.80338 12.4702Z" fill="#5F6368"/>
<path d="M11.6467 9.46094L11.6467 0.69568L11.6467 9.46094Z" fill="#27292B"/>
<path d="M11.6467 9.46094L11.6467 0.695679" stroke="#202428" stroke-linecap="round" stroke-linejoin="round"/>
</g>
<defs>
<clipPath id="clip0_4015_2505">
<rect width="16" height="16" fill="white" transform="matrix(-1 0 0 -1 16 16)"/>
</clipPath>
</defs>
</svg>
