<svg width="116" height="36" viewBox="0 0 116 36" fill="none" xmlns="http://www.w3.org/2000/svg">
<rect x="0.874023" width="115" height="36" rx="5" fill="white"/>
<path d="M18.3321 26.8989C18.0625 26.9289 17.5347 26.9551 16.7486 26.9775C15.9699 26.9925 15.1314 27 14.2329 27C13.342 26.9925 12.4997 26.9663 11.7061 26.9214C10.9125 26.869 10.3771 26.7829 10.1001 26.6631C9.83808 26.5583 9.63594 25.7946 9.49368 24.3721C9.35143 22.9495 9.25784 21.3548 9.21292 19.5879C9.168 17.8135 9.16426 16.1064 9.20169 14.4668C9.23913 12.8197 9.31025 11.7191 9.41507 11.165C9.48245 10.8132 9.8568 10.5024 10.5381 10.2329C11.2269 9.96338 12.058 9.77995 13.0313 9.68262C14.0046 9.5778 15.0378 9.5778 16.1309 9.68262C17.2315 9.78743 18.231 10.0345 19.1294 10.4238C20.4396 11.0078 21.3156 11.9661 21.7574 13.2988C22.1991 14.6315 22.0456 15.8818 21.2969 17.0498L21.3306 17.0723C22.3189 17.6712 22.9702 18.4499 23.2847 19.4082C23.6066 20.3665 23.6403 21.3773 23.3858 22.4404C23.1088 23.6084 22.5173 24.6154 21.6114 25.4614C20.7054 26.3 19.6123 26.7791 18.3321 26.8989ZM14.7832 13.8491C14.6934 14.1636 14.6784 14.5866 14.7383 15.1182C14.8057 15.6423 14.9479 15.938 15.1651 16.0054C15.5769 16.1401 15.9999 16.0615 16.4341 15.7695C16.8758 15.4775 17.0967 15.1107 17.0967 14.6689C17.0967 14.377 16.9694 14.1112 16.7149 13.8716C16.4678 13.632 16.086 13.5085 15.5694 13.501C15.1052 13.501 14.8431 13.617 14.7832 13.8491ZM15.0191 22.373C15.1988 22.7773 15.7416 22.856 16.6475 22.6089C17.5534 22.3543 17.939 21.8452 17.8042 21.0815C17.7069 20.5275 17.3625 20.1007 16.771 19.8013C16.1796 19.4943 15.6367 19.4531 15.1426 19.6777C14.8881 19.7975 14.757 20.1831 14.7495 20.8345C14.7495 21.4784 14.8394 21.9912 15.0191 22.373ZM41.6802 19.6216C41.2909 21.98 40.1454 23.8817 38.2437 25.3267C36.3495 26.7716 34.1446 27.2845 31.6289 26.8652C29.2032 26.4609 27.294 25.3042 25.9014 23.395C24.5088 21.4858 23.9997 19.3708 24.3741 17.0498C24.7259 14.8936 25.7666 13.0854 27.4961 11.6255C29.2331 10.158 31.2508 9.52539 33.5493 9.72754C36.3195 9.96712 38.472 11.019 40.0069 12.8833C41.5492 14.7476 42.107 16.9937 41.6802 19.6216ZM35.2339 18.667C35.3387 18.0231 35.2152 17.4766 34.8633 17.0273C34.5189 16.5706 34.0135 16.2861 33.3472 16.1738C32.7183 16.069 32.1643 16.2075 31.6851 16.5894C31.2059 16.9637 30.9214 17.4391 30.8316 18.0156C30.7118 18.7119 30.9064 19.3296 31.4156 19.8687C31.9247 20.4002 32.5536 20.6211 33.3023 20.5312C33.8189 20.4788 34.2494 20.2767 34.5938 19.9248C34.9382 19.5729 35.1516 19.1536 35.2339 18.667ZM52.0909 26.8989C51.8213 26.9289 51.2935 26.9551 50.5074 26.9775C49.7287 26.9925 48.8902 27 47.9917 27C47.1008 26.9925 46.2585 26.9663 45.4649 26.9214C44.6713 26.869 44.1359 26.7829 43.8589 26.6631C43.5969 26.5583 43.3947 25.7946 43.2525 24.3721C43.1102 22.9495 43.0166 21.3548 42.9717 19.5879C42.9268 17.8135 42.923 16.1064 42.9605 14.4668C42.9979 12.8197 43.069 11.7191 43.1739 11.165C43.2412 10.8132 43.6156 10.5024 44.2969 10.2329C44.9857 9.96338 45.8168 9.77995 46.7901 9.68262C47.7634 9.5778 48.7966 9.5778 49.8897 9.68262C50.9903 9.78743 51.9898 10.0345 52.8882 10.4238C54.1984 11.0078 55.0744 11.9661 55.5161 13.2988C55.9579 14.6315 55.8044 15.8818 55.0557 17.0498L55.0894 17.0723C56.0777 17.6712 56.729 18.4499 57.0435 19.4082C57.3654 20.3665 57.3991 21.3773 57.1446 22.4404C56.8675 23.6084 56.2761 24.6154 55.3701 25.4614C54.4642 26.3 53.3711 26.7791 52.0909 26.8989ZM48.542 13.8491C48.4522 14.1636 48.4372 14.5866 48.4971 15.1182C48.5645 15.6423 48.7067 15.938 48.9239 16.0054C49.3356 16.1401 49.7587 16.0615 50.1929 15.7695C50.6346 15.4775 50.8555 15.1107 50.8555 14.6689C50.8555 14.377 50.7282 14.1112 50.4737 13.8716C50.2266 13.632 49.8448 13.5085 49.3282 13.501C48.864 13.501 48.6019 13.617 48.542 13.8491ZM48.7779 22.373C48.9576 22.7773 49.5004 22.856 50.4063 22.6089C51.3122 22.3543 51.6978 21.8452 51.563 21.0815C51.4657 20.5275 51.1213 20.1007 50.5298 19.8013C49.9383 19.4943 49.3955 19.4531 48.9014 19.6777C48.6468 19.7975 48.5158 20.1831 48.5083 20.8345C48.5083 21.4784 48.5982 21.9912 48.7779 22.373ZM65.1182 10.4351C65.1556 10.7869 65.1818 11.4421 65.1968 12.4004C65.2193 13.3587 65.238 14.3545 65.253 15.3877C65.2679 16.4209 65.2829 17.3568 65.2979 18.1953C65.3203 19.0264 65.3503 19.4943 65.3877 19.5991C65.4401 19.7713 65.6872 19.8687 66.1289 19.8911C66.5782 19.9061 67.076 19.8986 67.6226 19.8687C68.1766 19.8387 68.7082 19.8088 69.2173 19.7788C69.7264 19.7414 70.0746 19.7526 70.2617 19.8125C70.5313 19.9023 70.7484 20.2954 70.9131 20.9917C71.0853 21.6805 71.1939 22.4292 71.2388 23.2378C71.2912 24.0389 71.2725 24.7801 71.1826 25.4614C71.0928 26.1353 70.9206 26.5021 70.666 26.562C70.2842 26.6593 69.5205 26.7529 68.375 26.8428C67.237 26.9251 66.0316 26.9738 64.7588 26.9888C63.486 27.0037 62.3068 26.9663 61.2212 26.8765C60.1356 26.7866 59.4655 26.6069 59.211 26.3374C58.9564 26.0679 58.758 25.1956 58.6158 23.7207C58.481 22.2458 58.3874 20.6248 58.335 18.8579C58.2901 17.091 58.2714 15.4102 58.2788 13.8154C58.2938 12.2207 58.3312 11.165 58.3911 10.6484C58.4211 10.3415 58.7842 10.1169 59.4805 9.97461C60.1768 9.83236 60.9367 9.76123 61.7603 9.76123C62.5839 9.75374 63.34 9.8099 64.0288 9.92969C64.7251 10.0495 65.0882 10.2179 65.1182 10.4351ZM89.1402 19.6216C88.7508 21.98 87.6053 23.8817 85.7036 25.3267C83.8094 26.7716 81.6045 27.2845 79.0889 26.8652C76.6631 26.4609 74.7539 25.3042 73.3614 23.395C71.9688 21.4858 71.4597 19.3708 71.834 17.0498C72.1859 14.8936 73.2266 13.0854 74.9561 11.6255C76.6931 10.158 78.7108 9.52539 81.0093 9.72754C83.7795 9.96712 85.932 11.019 87.4668 12.8833C89.0091 14.7476 89.5669 16.9937 89.1402 19.6216ZM82.6939 18.667C82.7987 18.0231 82.6752 17.4766 82.3233 17.0273C81.9789 16.5706 81.4735 16.2861 80.8072 16.1738C80.1783 16.069 79.6242 16.2075 79.1451 16.5894C78.6659 16.9637 78.3814 17.4391 78.2915 18.0156C78.1717 18.7119 78.3664 19.3296 78.8755 19.8687C79.3846 20.4002 80.0135 20.6211 80.7622 20.5312C81.2788 20.4788 81.7093 20.2767 82.0537 19.9248C82.3981 19.5729 82.6115 19.1536 82.6939 18.667ZM103.594 9.79492C103.758 9.75749 104.039 9.88102 104.436 10.1655C104.833 10.45 105.245 10.8019 105.671 11.2212C106.098 11.6405 106.495 12.0822 106.862 12.5464C107.236 13.0031 107.48 13.3887 107.592 13.7031C107.667 13.9277 107.36 14.478 106.671 15.354C105.982 16.2225 105.117 17.222 104.077 18.3525C105.02 19.4232 105.806 20.3628 106.435 21.1714C107.064 21.98 107.397 22.5041 107.435 22.7437C107.48 22.9159 107.371 23.2078 107.109 23.6196C106.847 24.0239 106.517 24.4507 106.121 24.8999C105.731 25.3491 105.316 25.7646 104.874 26.1465C104.432 26.5283 104.058 26.7754 103.751 26.8877C103.534 26.9626 102.976 26.6593 102.078 25.978C101.179 25.2892 100.217 24.4282 99.1914 23.395C98.3379 24.2336 97.5742 24.9635 96.9004 25.585C96.2341 26.2064 95.7549 26.6219 95.4629 26.8315C95.0811 27.1086 94.5607 27.0599 93.9019 26.6855C93.2505 26.3112 92.6328 25.8133 92.0489 25.1919C91.4649 24.5705 91.0044 23.9303 90.6675 23.2715C90.3381 22.6051 90.2969 22.1222 90.544 21.8228C90.9258 21.3735 91.4125 20.8382 92.0039 20.2168C92.5954 19.5954 93.2393 18.9328 93.9356 18.229C92.2959 16.5594 91.229 15.4027 90.7349 14.7588C90.4429 14.3844 90.4728 13.8678 90.8247 13.209C91.1766 12.5426 91.652 11.9137 92.251 11.3223C92.8575 10.7308 93.4864 10.2629 94.1377 9.91846C94.7891 9.57406 95.272 9.52539 95.5865 9.77246C96.0581 10.1618 96.6084 10.6559 97.2373 11.2549C97.8662 11.8464 98.5288 12.4902 99.2251 13.1865C100.281 12.2357 101.213 11.4383 102.022 10.7944C102.83 10.1506 103.354 9.81738 103.594 9.79492Z" fill="black"/>
</svg>
