<svg width="6" height="10" viewBox="0 0 6 10" fill="none" xmlns="http://www.w3.org/2000/svg">
<path d="M5.23126 5.00001C5.23126 4.90001 5.21251 4.80326 5.17501 4.70976C5.1375 4.61576 5.08751 4.53751 5.02501 4.47501L1.57501 1.02501C1.43751 0.887506 1.26251 0.818756 1.05001 0.818756C0.837506 0.818756 0.662506 0.887506 0.525006 1.02501C0.387506 1.16251 0.318756 1.33751 0.318756 1.55001C0.318756 1.76251 0.387506 1.93751 0.525006 2.07501L3.45001 5.00001L0.525005 7.92501C0.387505 8.06251 0.318756 8.23751 0.318756 8.45001C0.318756 8.66251 0.387505 8.83751 0.525005 8.97501C0.662505 9.1125 0.837505 9.18126 1.05001 9.18126C1.26251 9.18126 1.43751 9.11251 1.57501 8.97501L5.02501 5.52501C5.10001 5.45001 5.153 5.36876 5.18401 5.28126C5.2155 5.19376 5.23126 5.10001 5.23126 5.00001Z" fill="#F5F8FF"/>
</svg>
