<svg width="17" height="17" viewBox="0 0 17 17" fill="none" xmlns="http://www.w3.org/2000/svg">
<path fill-rule="evenodd" clip-rule="evenodd" d="M0.390027 0.377132C-0.112818 0.879976 -0.112818 1.69226 0.390027 2.19511L6.68203 8.5L0.377133 14.8049C-0.125711 15.3077 -0.125711 16.12 0.377133 16.6229C0.879977 17.1257 1.69226 17.1257 2.19511 16.6229L8.5 10.318L14.8049 16.6229C15.3077 17.1257 16.12 17.1257 16.6229 16.6229C17.1257 16.12 17.1257 15.3077 16.6229 14.8049L10.318 8.5L16.6229 2.19511C17.1257 1.69226 17.1257 0.879976 16.6229 0.377132C16.12 -0.125711 15.3077 -0.125711 14.8049 0.377132L8.5 6.68202L2.19511 0.377132C1.70516 -0.112818 0.879977 -0.112818 0.390027 0.377132Z" fill="white"/>
</svg>
