<?xml version="1.0" encoding="utf-8"?><svg viewBox="0 0 20 20" xmlns="http://www.w3.org/2000/svg" xmlns:xlink="http://www.w3.org/1999/xlink"><style>:root>svg{display:none}:root>svg:target{display:block}</style><svg viewBox="0 0 6 10" id="arrow-l" xmlns="http://www.w3.org/2000/svg"><path d="M.769 5a.773.773 0 0 1 .206-.525l3.45-3.45A.711.711 0 0 1 4.95.819c.212 0 .387.069.525.206a.711.711 0 0 1 .206.525.711.711 0 0 1-.206.525L2.55 5l2.925 2.925a.711.711 0 0 1 .206.525.711.711 0 0 1-.206.525.711.711 0 0 1-.525.206.711.711 0 0 1-.525-.206l-3.45-3.45a.654.654 0 0 1-.159-.244A.824.824 0 0 1 .769 5Z"/></svg><svg viewBox="0 0 6 10" id="arrow-r" xmlns="http://www.w3.org/2000/svg"><path d="M5.231 5a.773.773 0 0 0-.206-.525l-3.45-3.45A.711.711 0 0 0 1.05.819a.711.711 0 0 0-.525.206.711.711 0 0 0-.206.525c0 .213.069.388.206.525L3.45 5 .525 7.925a.711.711 0 0 0-.206.525c0 .213.069.388.206.525a.711.711 0 0 0 .525.206.711.711 0 0 0 .525-.206l3.45-3.45a.654.654 0 0 0 .159-.244A.824.824 0 0 0 5.231 5Z"/></svg><svg viewBox="0 0 17 17" id="close" xmlns="http://www.w3.org/2000/svg"><path fill-rule="evenodd" clip-rule="evenodd" d="M.39.377a1.284 1.284 0 0 0 0 1.818L6.682 8.5.377 14.805a1.284 1.284 0 0 0 0 1.818 1.284 1.284 0 0 0 1.818 0L8.5 10.318l6.305 6.305a1.284 1.284 0 0 0 1.818 0 1.284 1.284 0 0 0 0-1.818L10.318 8.5l6.305-6.305a1.284 1.284 0 0 0 0-1.818 1.284 1.284 0 0 0-1.818 0L8.5 6.682 2.195.377a1.292 1.292 0 0 0-1.805 0Z"/></svg><svg viewBox="0 0 16 16" id="dislike" xmlns="http://www.w3.org/2000/svg"><g clip-path="url(#da)"><path d="m5.803 12.47.73-3.01H2.276A1.46 1.46 0 0 1 .873 7.59l1.702-5.843A1.46 1.46 0 0 1 3.977.696h9.861a1.461 1.461 0 0 1 1.461 1.46V8a1.46 1.46 0 0 1-1.46 1.46h-2.017a1.46 1.46 0 0 0-1.307.812l-2.52 5.032a2.285 2.285 0 0 1-2.192-2.834ZM11.647 9.46V.697 9.46ZM11.647 9.46V.697"/></g><defs><clipPath id="da"><path transform="rotate(180 8 8)" d="M0 0h16v16H0z"/></clipPath></defs></svg><svg viewBox="0 0 16 16" id="fullscreen" xmlns="http://www.w3.org/2000/svg"><path d="M6.5 2H3a1 1 0 0 0-1 1v3.5M9.5 2H13a1 1 0 0 1 1 1v3.5m0 3V13a1 1 0 0 1-1 1H9.5m-3 0H3a1 1 0 0 1-1-1V9.5"/></svg><svg viewBox="0 0 20 20" id="game" xmlns="http://www.w3.org/2000/svg"><path d="M14.433 4.167H5.567a3.333 3.333 0 0 0-3.315 2.991l-.015.127c-.067.562-.57 4.762-.57 6.048a2.5 2.5 0 0 0 2.5 2.5c.833 0 1.25-.416 1.666-.833l1.179-1.178a1.667 1.667 0 0 1 1.178-.489h3.62c.442 0 .866.176 1.178.489L14.167 15c.416.417.833.833 1.666.833a2.5 2.5 0 0 0 2.5-2.5c0-1.287-.503-5.486-.57-6.048l-.015-.126a3.334 3.334 0 0 0-3.315-2.992ZM5 9.167h3.333M6.667 7.5v3.333M12.5 10h.01M15 8.333h.01"/></svg><svg viewBox="0 0 16 16" id="like" xmlns="http://www.w3.org/2000/svg"><g clip-path="url(#ga)"><path d="m10.197 3.53-.73 3.01h4.258a1.461 1.461 0 0 1 1.402 1.87l-1.702 5.843a1.46 1.46 0 0 1-1.402 1.051H2.162A1.461 1.461 0 0 1 .7 13.844V8a1.46 1.46 0 0 1 1.46-1.46h2.017a1.46 1.46 0 0 0 1.307-.812L8.005.696a2.286 2.286 0 0 1 2.192 2.834ZM4.353 6.54v8.764V6.54ZM4.353 6.54v8.764"/></g><defs><clipPath id="ga"><path d="M0 0h16v16H0z"/></clipPath></defs></svg></svg>